<?xml version="1.0" ?><!DOCTYPE svg  PUBLIC '-//W3C//DTD SVG 1.1//EN'  'http://www.w3.org/Graphics/SVG/1.1/DTD/svg11.dtd'><svg enable-background="new 0 0 128 128" id="Слой_1" version="1.1" viewBox="0 0 128 128" xml:space="preserve" xmlns="http://www.w3.org/2000/svg" xmlns:xlink="http://www.w3.org/1999/xlink"><path d="M114,124L114,124c0-27.6-22.4-50-50-50h0c-27.6,0-50,22.4-50,50v0" fill="#E5E3E3"/><g opacity="0.1"><path d="M64,74c-27.6,0-50,22.4-50,50v0h20v0c0-24.2,7.2-44.4,30-49C60.8,74.3,67.4,74,64,74L64,74z"/></g><path d="M94,124" fill="#E5E3E3"/><path d="M43.9,88.4c-4.7,4.4-9.3,15.2-9.3,25.6" fill="#E5E3E3"/><path d="M64,74" fill="#E5E3E3"/><line fill="#E5E3E3" x1="4" x2="124" y1="124" y2="124"/><line fill="#E5E3E3" x1="99" x2="124" y1="74" y2="74"/><line fill="#E5E3E3" x1="112" x2="124" y1="84" y2="84"/><line fill="#E5E3E3" x1="119" x2="124" y1="94" y2="94"/><path d="M42.2,86.6c-4.9,4.6-10.1,15.8-10.1,27.4c0,1.4,1.1,2.5,2.5,2.5s2.5-1.1,2.5-2.5c0-9.7,4.4-19.9,8.5-23.7  c1-0.9,1-2.5,0.1-3.5C44.8,85.7,43.2,85.7,42.2,86.6z" fill="#62355C"/><path d="M124,121.5h-7.6c-1.2-24.4-19-44.5-42.4-49v-6c0-5.5-4.5-10-10-10c-5.5,0-10,4.5-10,10v6  c-23.4,4.5-41.3,24.6-42.4,49H4c-1.4,0-2.5,1.1-2.5,2.5s1.1,2.5,2.5,2.5h120c1.4,0,2.5-1.1,2.5-2.5S125.4,121.5,124,121.5z M59,66.5  c0-2.8,2.2-5,5-5s5,2.2,5,5v5.2c-1.6-0.2-3.3-0.2-5-0.2s-3.4,0.1-5,0.2V66.5z M64,76.5c25.4,0,46.1,20,47.4,45H16.6  C17.9,96.5,38.6,76.5,64,76.5z" fill="#62355C"/><path d="M124,71.5H99c-1.4,0-2.5,1.1-2.5,2.5s1.1,2.5,2.5,2.5h25c1.4,0,2.5-1.1,2.5-2.5S125.4,71.5,124,71.5z" fill="#62355C"/><path d="M124,81.5h-12c-1.4,0-2.5,1.1-2.5,2.5s1.1,2.5,2.5,2.5h12c1.4,0,2.5-1.1,2.5-2.5S125.4,81.5,124,81.5z" fill="#62355C"/><path d="M124,91.5h-5c-1.4,0-2.5,1.1-2.5,2.5s1.1,2.5,2.5,2.5h5c1.4,0,2.5-1.1,2.5-2.5S125.4,91.5,124,91.5z" fill="#62355C"/></svg>